# xmcd
#
# Track frame offsets: 
#        150
#        14888
#        27670
#        43403
#        57525
#        70717
#        82357
#        93311
#        107332
#        122195
#        134884
#
# Disc length: 1844 seconds
#
# Revision: 0
# Processed by: cddbd v1.5.2PL0 Copyright (c) Steve Scherf et al.
# Submitted via: ExactAudioCopyFreeDBPlugin 1.0
#
DISCID=ad07320b
DTITLE=Son of Dave - Blues at the Grand
DYEAR=2013
DGENRE=Blues
TTITLE0=well well well
TTITLE1=hot summer night
TTITLE2=we going out
TTITLE3=titty shake
TTITLE4=they let too many people in
TTITLE5=old Mexico
TTITLE6=miss Katalin
TTITLE7=BowWow
TTITLE8=lay your hands
TTITLE9=poor me
TTITLE10=if only
EXTD=
EXTT0=
EXTT1=
EXTT2=
EXTT3=
EXTT4=
EXTT5=
EXTT6=
EXTT7=
EXTT8=
EXTT9=
EXTT10=
PLAYORDER=
